<svg version="1.1" xmlns="http://www.w3.org/2000/svg" x="0" y="0" viewBox="0 0 24 24" xml:space="preserve" enable-background="new 0 0 24 24" width="24" height="24"><title>close circle</title><g class="nc-icon-wrapper" fill="#111111"><path d="M12 0C5.4 0 0 5.4 0 12s5.4 12 12 12 12-5.4 12-12S18.6 0 12 0zm0 22.4C6.3 22.4 1.6 17.7 1.6 12S6.3 1.6 12 1.6 22.4 6.3 22.4 12 17.7 22.4 12 22.4zm4.5-16L12 10.9 7.5 6.4 6.4 7.5l4.5 4.5-4.5 4.5 1.1 1.1 4.5-4.5 4.5 4.5 1.1-1.1-4.5-4.5 4.5-4.5-1.1-1.1z"/></g></svg>
